PathFileType	4	(X/Y/Z)	D:\Share\Shared_Data\Ergonomics\Sit To Stand Pertubation\S2\Unperturbed.trc
DataRate	CameraRate	NumFrames	NumMarkers	Units	OrigDataRate	OrigDataStartFrame	OrigNumFrames	
100	100	9	18	m	100	3897	291
Frame#	Time	R_Toe			R_ASIS			R_Pelvis			V_Sacral			L_Pelvis			L_ASIS			Clavical			R_Acromium			L_Acromium			Sternum			Torso			R_Thigh_Med			R_Thigh_Lat			R_Thigh			R_Shank_Med			R_Shank_Lat			R_Shank			R_Heel			
		X1	Y1	Z1	X2	Y2	Z2	X3	Y3	Z3	X4	Y4	Z4	X5	Y5	Z5	X6	Y6	Z6	X7	Y7	Z7	X8	Y8	Z8	X9	Y9	Z9	X10	Y10	Z10	X11	Y11	Z11	X12	Y12	Z12	X13	Y13	Z13	X14	Y14	Z14	X15	Y15	Z15	X16	Y16	Z16	X17	Y17	Z17	X18	Y18	Z18	

3897	38.96	0.44105389	0.068355316	0.14705087	-0.042903057	0.64725677	0.14020905	-0.12189509	0.63841309	0.17840273	-0.24828775	0.56764026	0.021073914	-0.16010899	0.63105988	-0.15939336	-0.067097618	0.65367181	-0.13101569	-0.0095899839	1.0190468	0.0040099826	-0.10549888	1.048808	0.20619818	-0.10789562	1.0537506	-0.18232591	0.020128036	0.85654822	0.0036071372	-0.0027369492	0.97645709	-0.11182067	0.36588599	0.50569415	0.12222922	0.33605978	0.51290515	0.22588548	0.17509683	0.62305872	0.17148277	0.30297516	0.10915604	0.11259443	0.28449902	0.10135477	0.20518555	0.33022476	0.36067288	0.23965262	0.20340028	0.060810219	0.15272316
3898	38.97	0.44105524	0.06831041	0.14703905	-0.042570881	0.64707568	0.14018181	-0.12163634	0.63857166	0.17829247	-0.2482148	0.56796167	0.021017485	-0.15982771	0.63126184	-0.15946774	-0.066734291	0.65355945	-0.13110725	-0.0061477323	1.0182482	0.0037370391	-0.10181957	1.0488986	0.20587781	-0.10423621	1.0534308	-0.18264484	0.022311905	0.85550818	0.003489526	0.00036048019	0.97546136	-0.11205002	0.36575824	0.50568652	0.12222799	0.33593005	0.51291205	0.22589043	0.1750213	0.62306641	0.1714272	0.3029519	0.10912891	0.11258044	0.28450916	0.10135636	0.20516808	0.3301113	0.3606691	0.23961197	0.20340839	0.060796459	0.15268642
3899	38.98	0.44105756	0.068254044	0.14702426	-0.042203888	0.64688647	0.1401534	-0.12135568	0.63873529	0.17818163	-0.24811864	0.56831616	0.020946333	-0.15950967	0.63147467	-0.15954318	-0.066319344	0.65344513	-0.13119884	-0.0025656378	1.0173938	0.0034568377	-0.09797863	1.0489529	0.20555394	-0.10042675	1.0530856	-0.18297209	0.02460117	0.8544184	0.0033602729	0.0035840116	0.9744173	-0.11228231	0.3656423	0.50567682	0.1222355	0.33581216	0.51291693	0.2259081	0.17495714	0.62307007	0.17137801	0.30293137	0.10909816	0.11256078	0.28452518	0.10135967	0.20514638	0.33000128	0.36065356	0.23955363	0.20341893	0.060787884	0.15264706
3900	38.99	0.44106104	0.068191383	0.1470079	-0.041800831	0.64669232	0.14012009	-0.12105643	0.6389021	0.17807138	-0.24799898	0.56870288	0.020863886	-0.15915462	0.63169843	-0.15961954	-0.065846443	0.65333282	-0.13128769	0.0011562027	1.0164802	0.0031703284	-0.093972878	1.048967	0.20523	-0.096465263	1.0527113	-0.1833045	0.02699511	0.85327527	0.0032193551	0.0069345889	0.97332141	-0.11251533	0.36553741	0.50566434	0.12225204	0.33570648	0.51292023	0.22593851	0.17490445	0.62307104	0.17133591	0.30291312	0.10906602	0.11253761	0.28454535	0.10136415	0.2051234	0.32989404	0.36063031	0.23948894	0.20343135	0.060785191	0.15260892
3901	39	0.44106592	0.068126091	0.14699164	-0.041356934	0.64649573	0.1400793	-0.12073904	0.6390708	0.1779615	-0.24785541	0.56912103	0.020774784	-0.15876192	0.63193268	-0.15969792	-0.065309708	0.65322632	-0.13137158	0.0050160003	1.0155042	0.0028770864	-0.089799347	1.0489371	0.20490952	-0.092351288	1.0523044	-0.18363869	0.029491314	0.85207635	0.003068696	0.010412001	0.97217096	-0.11274699	0.36544296	0.50564868	0.12227808	0.33561298	0.512922	0.2259803	0.17486336	0.62307056	0.17130135	0.30289709	0.10903395	0.11251282	0.28456818	0.10136922	0.20510107	0.32979117	0.36060513	0.23943315	0.20344554	0.060789078	0.15257544
3902	39.01	0.44107242	0.0680606	0.14697725	-0.040866196	0.64629596	0.14003023	-0.1203978	0.63924115	0.17785077	-0.24768723	0.56957074	0.020682451	-0.15833044	0.63217688	-0.15978014	-0.06470388	0.65312909	-0.13144815	0.0090109653	1.0144627	0.0025749769	-0.085455017	1.0488604	0.20459489	-0.088084991	1.0518624	-0.1839707	0.032086132	0.85082117	0.0029117229	0.014014845	0.97096338	-0.1129766	0.36535876	0.50562961	0.12231413	0.33553125	0.51292108	0.22603009	0.1748342	0.62307007	0.17127472	0.30288409	0.10900317	0.11248801	0.28459256	0.10137441	0.20508034	0.3296951	0.36058243	0.23939777	0.20346114	0.060800133	0.15254962
3903	39.02	0.44108017	0.067997169	0.14696597	-0.040325699	0.64608929	0.13997388	-0.12001785	0.63941406	0.17773695	-0.24749411	0.5700528	0.020588301	-0.15785872	0.63243109	-0.15986784	-0.064025124	0.65304541	-0.13151436	0.013137695	1.013351	0.0022598586	-0.080937286	1.0487336	0.20428714	-0.083666595	1.0513845	-0.18429604	0.034775593	0.84950995	0.0027523937	0.017740892	0.96969653	-0.113205	0.36528519	0.50560696	0.1223608	0.33546002	0.51291614	0.2260836	0.17481775	0.62307135	0.17125677	0.3028757	0.10897517	0.11246471	0.28461731	0.10137949	0.20506119	0.32960757	0.36056366	0.23938693	0.20347737	0.060818424	0.15253354
3904	39.03	0.44108856	0.06793882	0.14695816	-0.039738079	0.64586975	0.13991188	-0.11957489	0.63959308	0.17761607	-0.24727602	0.57056866	0.020492609	-0.15734518	0.63269635	-0.15996231	-0.063273193	0.65297772	-0.131567	0.017392246	1.0121629	0.0019260384	-0.076244537	1.0485538	0.20398648	-0.079096176	1.05087	-0.18461069	0.037557106	0.84814288	0.0025945554	0.021587524	0.96836835	-0.11343295	0.36522211	0.50558047	0.12241884	0.3353981	0.5129054	0.22613789	0.17481511	0.62307697	0.17124892	0.30287354	0.10895184	0.11244438	0.28464069	0.10138454	0.20504279	0.32952957	0.36054797	0.23939886	0.20349298	0.060843113	0.15252843
3905	39.04	0.44109647	0.067889549	0.1469538	-0.039108654	0.64563177	0.13984465	-0.11904303	0.63978314	0.17748293	-0.24703264	0.57111981	0.02039596	-0.1567887	0.63297437	-0.16006551	-0.062454227	0.65292462	-0.13160498	0.02177079	1.0108914	0.0015682179	-0.07137587	1.0483181	0.20369232	-0.074373711	1.050317	-0.18491281	0.040430798	0.84671875	0.0024414821	0.025552313	0.96697699	-0.11365976	0.36516946	0.5055499	0.12248896	0.3353447	0.51288788	0.22619302	0.17482727	0.62308893	0.17125296	0.30287854	0.10893507	0.11242841	0.28466046	0.10138966	0.20502406	0.32946182	0.36053345	0.23942871	0.20350659	0.060872475	0.15253549
